<svg width="290" height="290" viewBox="0 0 290 290" fill="none" xmlns="http://www.w3.org/2000/svg">
<path d="M282.7 70.3C278 59.2 271.2 49.2 262.7 40.6C254.1 32 244.1 25.3 233 20.6C229.3 19 225.5 17.7 221.7 16.7V8.70001C221.7 4.00001 217.9 0.200012 213.2 0.200012C208.5 0.200012 204.7 4.00001 204.7 8.70001V13.6C202 13.4 199.3 13.2 196.6 13.2H110.9C106.2 13.2 102.4 17 102.4 21.7C102.4 26.4 106.2 30.2 110.9 30.2H196.6C199.3 30.2 202 30.3 204.7 30.6V35C204.7 39.7 208.5 43.5 213.2 43.5C217.9 43.5 221.7 39.7 221.7 35V34.4C232.5 38.1 242.4 44.3 250.7 52.6C265.2 67.1 273.1 86.3 273.1 106.7V196.4C273.1 216.8 265.1 236.1 250.7 250.5C236.2 265 217 273 196.5 273H175.7C171 273 167.2 276.8 167.2 281.5C167.2 286.2 171 290 175.7 290H196.5C209.1 290 221.4 287.5 232.9 282.6C244 277.9 254 271.1 262.6 262.6C271.2 254 277.9 244 282.6 232.9C287.5 221.4 290 209.1 290 196.5V106.8C290 94.1 287.6 81.9 282.7 70.3Z" fill="#226DB4"/>
<path d="M187 196.4C187 183.8 184.5 171.5 179.6 160C174.9 148.9 168.1 138.9 159.6 130.3C151.1 121.7 141 115 129.9 110.3C118.4 105.4 106.1 102.9 93.5 102.9C80.9 102.9 68.6 105.4 57.1 110.3C46 115 36 121.8 27.4 130.3C23.6 134.1 20.1 138.3 17 142.6V106.7C17 88.9 23.3 71.6 34.6 57.9C43.5 47.1 55.3 39 68.3 34.5V34.9C68.3 39.6 72.1 43.4 76.8 43.4C81.5 43.4 85.3 39.6 85.3 34.9V23.5V23.4V8.5C85.3 3.8 81.5 0 76.8 0C72.1 0 68.3 3.8 68.3 8.5V16.6C50.1 21.7 33.7 32.4 21.5 47C14.7 55.2 9.4 64.4 5.7 74.4C1.9 84.8 0 95.6 0 106.7V196.4C0 209 2.5 221.3 7.4 232.8C12.1 243.9 18.9 253.9 27.4 262.5C36 271.1 46 277.8 57.1 282.5C68.6 287.4 80.9 289.9 93.5 289.9C94 289.9 94.4 289.9 94.9 289.8C107 289.6 118.8 287.2 129.9 282.5C141 277.8 151 271 159.6 262.5C168.2 253.9 174.9 243.9 179.6 232.8C184.5 221.3 187 209 187 196.4ZM147.6 250.5C133.1 265 113.9 272.9 93.5 272.9C73.1 272.9 53.8 264.9 39.4 250.5C24.9 236 17 216.8 17 196.4C17 176 25 156.7 39.4 142.3C53.8 127.9 73.1 119.9 93.5 119.9C113.9 119.9 133.2 127.9 147.6 142.3C162.1 156.8 170 176 170 196.4C170 216.8 162.1 236 147.6 250.5Z" fill="#226DB4"/>
<path d="M93.5 205C91.2 205 89 204.1 87.3 202.3L59.8 173C56.6 169.6 56.8 164.2 60.2 161C63.6 157.8 69 158 72.2 161.4L93.9 184.5L172.1 111.7C175.5 108.5 180.9 108.7 184.1 112.1C187.3 115.5 187.1 120.9 183.7 124.1L99.3 202.7C97.7 204.2 95.6 205 93.5 205Z" fill="#089949"/>
</svg>
